<svg xmlns="http://www.w3.org/2000/svg" viewBox="0 0 52 52" class="design-iconfont">
  <path d="M26,0 C40.3594035,0 52,11.6405965 52,26 C52,40.3594035 40.3594035,52 26,52 C11.6405965,52 0,40.3594035 0,26 C0,11.6405965 11.6405965,0 26,0 Z M26,1 C12.1928813,1 1,12.1928813 1,26 C1,39.8071187 12.1928813,51 26,51 C39.8071187,51 51,39.8071187 51,26 C51,12.1928813 39.8071187,1 26,1 Z M26,9 C27.6568542,9 29,10.3431458 29,12 C29,13.486255 27.9192103,14.7200781 26.5006962,14.9584039 L26.5003924,20.0176097 C30.1328443,20.2741734 33,23.3022566 33,27 C33,28.0470398 32.7701184,29.040388 32.3580734,29.9323263 L36.8748054,32.882561 C37.4180019,32.3373873 38.1696004,32 39,32 C40.6568542,32 42,33.3431458 42,35 C42,36.6568542 40.6568542,38 39,38 C37.3431458,38 36,36.6568542 36,35 C36,34.5340097 36.1062449,34.0928343 36.2958326,33.6993759 L31.8732051,30.8101147 C30.6250269,32.7302138 28.4608007,34 26,34 C23.5619052,34 21.4149371,32.7535383 20.1615792,30.8630985 L15.6979609,33.6865734 C15.8914348,34.0832545 16,34.5289489 16,35 C16,36.6568542 14.6568542,38 13,38 C11.3431458,38 10,36.6568542 10,35 C10,33.3431458 11.3431458,32 13,32 C13.8249753,32 14.5721758,32.332994 15.1145234,32.8719043 L19.6696973,29.991705 C19.2402239,29.0845601 19,28.0703337 19,27 C19,23.3019154 21.867685,20.2736144 25.5006133,20.0175388 L25.5002947,14.9585702 C24.081293,14.7206526 23,13.4866011 23,12 C23,10.3431458 24.3431458,9 26,9 Z M39,33 C37.8954305,33 37,33.8954305 37,35 C37,36.1045695 37.8954305,37 39,37 C40.1045695,37 41,36.1045695 41,35 C41,33.8954305 40.1045695,33 39,33 Z M13,33 C11.8954305,33 11,33.8954305 11,35 C11,36.1045695 11.8954305,37 13,37 C14.1045695,37 15,36.1045695 15,35 C15,33.8954305 14.1045695,33 13,33 Z M26,21 C22.6862915,21 20,23.6862915 20,27 C20,30.3137085 22.6862915,33 26,33 C29.3137085,33 32,30.3137085 32,27 C32,23.6862915 29.3137085,21 26,21 Z M26,10 C24.8954305,10 24,10.8954305 24,12 C24,13.1045695 24.8954305,14 26,14 C27.1045695,14 28,13.1045695 28,12 C28,10.8954305 27.1045695,10 26,10 Z" />
</svg>
