<?xml version="1.0" encoding="UTF-8"?>
<svg xmlns="http://www.w3.org/2000/svg" xmlns:xlink="http://www.w3.org/1999/xlink" width="60px" height="60px" viewBox="0 0 60 60" version="1.1">
  <title>登记处</title>
  <defs>
    <linearGradient x1="15.829458%" y1="-5.57710015%" x2="100%" y2="73.2866228%" id="linearGradient-1">
      <stop stop-color="#0959AE" offset="0%"></stop>
      <stop stop-color="#002182" offset="100%"></stop>
    </linearGradient>
  </defs>
  <g id="页面-1" stroke="none" stroke-width="1"  fill-rule="evenodd">
    <g id="首页" transform="translate(-668.000000, -860.000000)" fill-rule="nonzero">
      <g id="编组-45" transform="translate(622.000000, 810.000000)">
        <g id="登记处" transform="translate(46.000000, 50.000000)">
          <rect id="矩形" fill="#000000" opacity="0" x="0" y="0" width="60" height="60"></rect>
          <path d="M39.3525305,25.2438718 C46.8813845,25.2438718 53,31.4658705 53,39.1219359 C53,46.7780013 46.8813845,53 39.3525305,53 C31.8236765,53 25.7050611,46.7780013 25.7050611,39.1219359 C25.7050611,31.4658705 31.8236765,25.2438718 39.3525305,25.2438718 Z M39.9076923,7 C41.4159615,7 42.65,8.24875 42.65,9.775 L42.65,9.775 L42.65,21.591875 C42.65,22.609375 41.8273077,23.441875 40.8217949,23.441875 C39.8162821,23.441875 38.9935898,22.609375 38.9935898,21.591875 L38.9935898,21.591875 L38.9935898,10.7 L10.6564103,10.7 L10.6564103,45.85 L21.4885257,45.85 C22.4940385,45.85 23.3167308,46.659375 23.3167308,47.7 C23.3167308,48.7175 22.4940385,49.55 21.4885257,49.55 L21.4885257,49.55 L9.74230769,49.55 C8.23403846,49.55 7,48.30125 7,46.775 L7,46.775 L7,9.775 C7,8.24875 8.23403846,7 9.74230769,7 L9.74230769,7 Z M39.3525305,28.9446889 C33.8253054,28.9446889 29.3443862,33.5013199 29.3443862,39.1219359 C29.3443862,44.7425519 33.8253054,49.2991829 39.3525305,49.2991829 C44.8797557,49.2991829 49.3606748,44.7425519 49.3606748,39.1219359 C49.3606748,33.5013199 44.8797557,28.9446889 39.3525305,28.9446889 Z M45.5561864,35.1438136 C46.2812712,35.8688983 46.2812712,37.0617797 45.5561864,37.7868644 L40.3499876,42.9946242 C40.3517619,43.4977918 40.1624261,44.0015344 39.7819803,44.3819803 C39.301836,44.8621245 38.6253061,45.0378711 38.0013963,44.90922 C37.403653,45.0347635 36.7543681,44.866741 36.2938136,44.4061864 C35.9378171,44.05019 35.756605,43.5814294 35.7501773,43.1106328 L32.8680197,40.2287177 C32.1106601,39.4713581 32.1106601,38.2253793 32.8680197,37.4680197 C33.6253794,36.7106601 34.8713581,36.7106601 35.6287177,37.4680197 L38.108,39.948 L42.9131356,35.1438136 C43.6382204,34.4187288 44.8311017,34.4187288 45.5561864,35.1438136 Z M20.268819,36.554494 C21.2696335,36.554494 22.0884817,37.3871779 22.0884817,38.4049026 C22.0884817,39.4226272 21.2696335,40.2553111 20.268819,40.2553111 L15.7196626,40.2553111 C14.7188482,40.2553111 13.9,39.4226272 13.9,38.4049026 C13.9,37.3871779 14.7188482,36.554494 15.7196626,36.554494 L20.268819,36.554494 Z M23.9081443,26.377247 C24.9089587,26.377247 25.7278068,27.2099308 25.7278068,28.2276556 C25.7278068,29.2453803 24.9089587,30.0780641 23.9081443,30.0780641 L15.7196626,30.0780641 C14.7188482,30.0780641 13.9,29.2453803 13.9,28.2276556 C13.9,27.2099309 14.7188482,26.377247 15.7196626,26.377247 L23.9081443,26.377247 Z M35.0535777,16.2 C36.0543921,16.2 36.8732402,17.0326838 36.8732402,18.0504085 C36.8732402,19.0681332 36.0543921,19.9008171 35.0535777,19.9008171 L15.9471204,19.9008171 C14.946306,19.9008171 14.1274578,19.0681333 14.1274578,18.0504085 C14.1274578,17.0326838 14.946306,16.2 15.9471204,16.2 L35.0535777,16.2 Z" id="形状结合" ></path>
        </g>
      </g>
    </g>
  </g>
</svg>
